<svg xmlns="http://www.w3.org/2000/svg" viewBox="0 0 900 520" font-family="system-ui, -apple-system, 'Segoe UI', sans-serif">
  <defs>
    <linearGradient id="bgGrad" x1="0" y1="0" x2="0" y2="1">
      <stop offset="0%" stop-color="#F0F1F5"/>
      <stop offset="100%" stop-color="#F0F1F5"/>
    </linearGradient>
    <linearGradient id="browserGrad" x1="0" y1="0" x2="1" y2="1">
      <stop offset="0%" stop-color="#0D7D8C"/>
      <stop offset="100%" stop-color="#0D7D8C"/>
    </linearGradient>
    <linearGradient id="serverGrad" x1="0" y1="0" x2="1" y2="1">
      <stop offset="0%" stop-color="#FCFCFD"/>
      <stop offset="100%" stop-color="#F0F1F5"/>
    </linearGradient>
    <linearGradient id="externalGrad" x1="0" y1="0" x2="1" y2="1">
      <stop offset="0%" stop-color="#7233B8"/>
      <stop offset="100%" stop-color="#A78BFA"/>
    </linearGradient>
    <filter id="glow">
      <feGaussianBlur stdDeviation="2" result="blur"/>
      <feMerge><feMergeNode in="blur"/><feMergeNode in="SourceGraphic"/></feMerge>
    </filter>
    <filter id="shadow">
      <feDropShadow dx="0" dy="2" stdDeviation="4" flood-color="#475569" flood-opacity="0.1"/>
    </filter>
  </defs>

  <!-- Background -->
  <rect width="900" height="520" rx="16" fill="url(#bgGrad)"/>

  <!-- Title -->
  <text x="450" y="36" text-anchor="middle" fill="#656A80" font-size="12" font-weight="500" letter-spacing="2">AINATIVE ARCHITECTURE</text>

  <!-- ═══════════ BROWSER LAYER ═══════════ -->
  <rect x="40" y="52" width="820" height="78" rx="12" fill="none" stroke="url(#browserGrad)" stroke-width="1.5" opacity="0.8" filter="url(#shadow)"/>
  <rect x="40" y="52" width="820" height="78" rx="12" fill="#FCFCFD" opacity="0.6"/>

  <text x="64" y="74" fill="#0D7D8C" font-size="11" font-weight="700" letter-spacing="1.5">BROWSER</text>
  <text x="152" y="74" fill="#7B8099" font-size="10">React 19 · 37 operator surfaces</text>

  <!-- Route pills -->
  <rect x="64" y="86" width="60" height="24" rx="12" fill="#2563EB" opacity="0.12"/>
  <text x="94" y="102" text-anchor="middle" fill="#2563EB" font-size="10" font-weight="500">Home</text>

  <rect x="132" y="86" width="76" height="24" rx="12" fill="#2563EB" opacity="0.12"/>
  <text x="170" y="102" text-anchor="middle" fill="#2563EB" font-size="10" font-weight="500">Tasks</text>

  <rect x="216" y="86" width="60" height="24" rx="12" fill="#2563EB" opacity="0.12"/>
  <text x="246" y="102" text-anchor="middle" fill="#2563EB" font-size="10" font-weight="500">Chat</text>

  <rect x="284" y="86" width="68" height="24" rx="12" fill="#2563EB" opacity="0.12"/>
  <text x="318" y="102" text-anchor="middle" fill="#2563EB" font-size="10" font-weight="500">Tables</text>

  <rect x="360" y="86" width="76" height="24" rx="12" fill="#2563EB" opacity="0.12"/>
  <text x="398" y="102" text-anchor="middle" fill="#2563EB" font-size="10" font-weight="500">Workflows</text>

  <rect x="444" y="86" width="64" height="24" rx="12" fill="#2563EB" opacity="0.12"/>
  <text x="476" y="102" text-anchor="middle" fill="#2563EB" font-size="10" font-weight="500">Profiles</text>

  <rect x="516" y="86" width="76" height="24" rx="12" fill="#2563EB" opacity="0.12"/>
  <text x="554" y="102" text-anchor="middle" fill="#2563EB" font-size="10" font-weight="500">Schedules</text>

  <rect x="600" y="86" width="64" height="24" rx="12" fill="#2563EB" opacity="0.12"/>
  <text x="632" y="102" text-anchor="middle" fill="#2563EB" font-size="10" font-weight="500">Inbox</text>

  <rect x="672" y="86" width="72" height="24" rx="12" fill="#2563EB" opacity="0.12"/>
  <text x="708" y="102" text-anchor="middle" fill="#2563EB" font-size="10" font-weight="500">Environ.</text>

  <rect x="752" y="86" width="68" height="24" rx="12" fill="#2563EB" opacity="0.12"/>
  <text x="786" y="102" text-anchor="middle" fill="#2563EB" font-size="10" font-weight="500">Settings</text>

  <!-- Connection lines from browser to server -->
  <line x1="300" y1="130" x2="300" y2="162" stroke="#0D7D8C" stroke-width="1" opacity="0.4"/>
  <line x1="600" y1="130" x2="600" y2="162" stroke="#0D7D8C" stroke-width="1" opacity="0.4"/>

  <!-- Connection labels -->
  <text x="240" y="150" fill="#7B8099" font-size="9">Server Components</text>
  <text x="237" y="159" fill="#D4D6DE" font-size="8">(direct DB queries)</text>
  <text x="556" y="150" fill="#7B8099" font-size="9">160 API Routes</text>
  <text x="550" y="159" fill="#D4D6DE" font-size="8">(mutations + streams)</text>

  <!-- ═══════════ SERVER LAYER ═══════════ -->
  <rect x="40" y="164" width="820" height="200" rx="12" fill="url(#serverGrad)" opacity="0.8" filter="url(#shadow)"/>
  <rect x="40" y="164" width="820" height="200" rx="12" fill="none" stroke="#D4D6DE" stroke-width="1"/>

  <text x="64" y="186" fill="#2D3250" font-size="11" font-weight="700" letter-spacing="1.5">NEXT.JS 16 SERVER · 33 SERVICE MODULES</text>

  <!-- Row 1: Core services -->
  <!-- Drizzle ORM -->
  <rect x="64" y="200" width="200" height="60" rx="8" fill="#FCFCFD" stroke="#D4D6DE" stroke-width="1"/>
  <rect x="64" y="200" width="4" height="60" rx="2" fill="#0D7D8C"/>
  <text x="80" y="222" fill="#2D3250" font-size="12" font-weight="600">Drizzle ORM</text>
  <text x="80" y="240" fill="#7B8099" font-size="10">SQLite · WAL mode</text>
  <text x="80" y="252" fill="#7B8099" font-size="10">45 tables · Self-healing bootstrap</text>

  <!-- Runtime Registry -->
  <rect x="280" y="200" width="220" height="60" rx="8" fill="#FCFCFD" stroke="#D4D6DE" stroke-width="1"/>
  <rect x="280" y="200" width="4" height="60" rx="2" fill="#2563EB"/>
  <text x="296" y="222" fill="#2D3250" font-size="12" font-weight="600">Runtime Registry</text>
  <text x="296" y="240" fill="#7B8099" font-size="10">5-provider abstraction layer</text>
  <text x="296" y="252" fill="#7B8099" font-size="10">Claude · OpenAI · Ollama · Direct</text>

  <!-- SSE Stream -->
  <rect x="516" y="200" width="160" height="60" rx="8" fill="#FCFCFD" stroke="#D4D6DE" stroke-width="1"/>
  <rect x="516" y="200" width="4" height="60" rx="2" fill="#7233B8"/>
  <text x="532" y="222" fill="#2D3250" font-size="12" font-weight="600">SSE Stream</text>
  <text x="532" y="240" fill="#7B8099" font-size="10">Real-time log push</text>
  <text x="532" y="252" fill="#7B8099" font-size="10">/api/logs/stream</text>

  <!-- Profile Engine -->
  <rect x="692" y="200" width="152" height="60" rx="8" fill="#FCFCFD" stroke="#D4D6DE" stroke-width="1"/>
  <rect x="692" y="200" width="4" height="60" rx="2" fill="#A66D0A"/>
  <text x="708" y="222" fill="#2D3250" font-size="12" font-weight="600">Profile Engine</text>
  <text x="708" y="240" fill="#7B8099" font-size="10">21 agent profiles</text>
  <text x="708" y="252" fill="#7B8099" font-size="10">MCP · Tools · Tuning</text>

  <!-- Row 2: Engines -->
  <!-- Scheduler Engine -->
  <rect x="64" y="276" width="200" height="60" rx="8" fill="#FCFCFD" stroke="#D4D6DE" stroke-width="1"/>
  <rect x="64" y="276" width="4" height="60" rx="2" fill="#0D7D5A"/>
  <text x="80" y="298" fill="#2D3250" font-size="12" font-weight="600">Scheduler Engine</text>
  <text x="80" y="316" fill="#7B8099" font-size="10">Heartbeat · cron · intervals</text>
  <text x="80" y="328" fill="#7B8099" font-size="10">NL scheduling · recurring</text>

  <!-- Workflow Engine -->
  <rect x="280" y="276" width="220" height="60" rx="8" fill="#FCFCFD" stroke="#D4D6DE" stroke-width="1"/>
  <rect x="280" y="276" width="4" height="60" rx="2" fill="#B83D75"/>
  <text x="296" y="298" fill="#2D3250" font-size="12" font-weight="600">Workflow Engine</text>
  <text x="296" y="316" fill="#7B8099" font-size="10">6 orchestration patterns</text>
  <text x="296" y="328" fill="#7B8099" font-size="10">Sequence · Planner · Swarm · Loop</text>

  <!-- Permission Checker -->
  <rect x="516" y="276" width="160" height="60" rx="8" fill="#FCFCFD" stroke="#D4D6DE" stroke-width="1"/>
  <rect x="516" y="276" width="4" height="60" rx="2" fill="#C23030"/>
  <text x="532" y="298" fill="#2D3250" font-size="12" font-weight="600">Permission Gate</text>
  <text x="532" y="316" fill="#7B8099" font-size="10">Always Allow patterns</text>
  <text x="532" y="328" fill="#7B8099" font-size="10">canUseTool polling</text>

  <!-- Document Processor -->
  <rect x="692" y="276" width="152" height="60" rx="8" fill="#FCFCFD" stroke="#D4D6DE" stroke-width="1"/>
  <rect x="692" y="276" width="4" height="60" rx="2" fill="#0D7D8C"/>
  <text x="708" y="298" fill="#2D3250" font-size="12" font-weight="600">Doc Processor</text>
  <text x="708" y="316" fill="#7B8099" font-size="10">5-format extraction</text>
  <text x="708" y="328" fill="#7B8099" font-size="10">Context injection</text>

  <!-- Connection lines from server to externals -->
  <line x1="164" y1="364" x2="164" y2="404" stroke="#0D7D8C" stroke-width="1" opacity="0.4"/>
  <line x1="450" y1="364" x2="450" y2="404" stroke="#2563EB" stroke-width="1" opacity="0.4"/>
  <line x1="736" y1="364" x2="736" y2="404" stroke="#7233B8" stroke-width="1" opacity="0.4"/>

  <!-- ═══════════ EXTERNAL LAYER ═══════════ -->
  <!-- Database -->
  <rect x="64" y="408" width="200" height="72" rx="12" fill="none" stroke="#0D7D8C" stroke-width="1" opacity="0.6"/>
  <rect x="64" y="408" width="200" height="72" rx="12" fill="#FCFCFD" opacity="0.8"/>
  <!-- Database icon -->
  <ellipse cx="100" cy="432" rx="12" ry="6" fill="none" stroke="#0D7D8C" stroke-width="1.2"/>
  <line x1="88" y1="432" x2="88" y2="446" stroke="#0D7D8C" stroke-width="1.2"/>
  <line x1="112" y1="432" x2="112" y2="446" stroke="#0D7D8C" stroke-width="1.2"/>
  <ellipse cx="100" cy="446" rx="12" ry="6" fill="none" stroke="#0D7D8C" stroke-width="1.2"/>
  <text x="122" y="436" fill="#2D3250" font-size="12" font-weight="600">~/.ainative/</text>
  <text x="122" y="452" fill="#7B8099" font-size="10">ainative.db</text>
  <text x="80" y="472" fill="#7B8099" font-size="9">SQLite · WAL · better-sqlite3</text>

  <!-- Runtime Backends -->
  <rect x="300" y="408" width="300" height="72" rx="12" fill="none" stroke="#2563EB" stroke-width="1" opacity="0.6"/>
  <rect x="300" y="408" width="300" height="72" rx="12" fill="#FCFCFD" opacity="0.8"/>
  <!-- Anthropic -->
  <circle cx="332" cy="436" r="10" fill="none" stroke="#A66D0A" stroke-width="1.2"/>
  <text x="332" y="440" text-anchor="middle" fill="#A66D0A" font-size="10" font-weight="700">A</text>
  <text x="350" y="436" fill="#2D3250" font-size="11" font-weight="600">Anthropic</text>
  <text x="350" y="450" fill="#7B8099" font-size="9">Claude Agent SDK · Direct</text>
  <!-- OpenAI -->
  <circle cx="482" cy="436" r="10" fill="none" stroke="#0D7D5A" stroke-width="1.2"/>
  <text x="482" y="440" text-anchor="middle" fill="#0D7D5A" font-size="10" font-weight="700">O</text>
  <text x="500" y="436" fill="#2D3250" font-size="11" font-weight="600">OpenAI</text>
  <text x="500" y="450" fill="#7B8099" font-size="9">Codex · Direct · Ollama</text>
  <text x="370" y="472" fill="#7B8099" font-size="9">5 governed runtime backends</text>

  <!-- Browser EventSource -->
  <rect x="636" y="408" width="220" height="72" rx="12" fill="none" stroke="#7233B8" stroke-width="1" opacity="0.6"/>
  <rect x="636" y="408" width="220" height="72" rx="12" fill="#FCFCFD" opacity="0.8"/>
  <!-- Signal icon -->
  <circle cx="668" cy="436" r="3" fill="#7233B8"/>
  <path d="M656 424 A16 16 0 0 1 680 424" fill="none" stroke="#7233B8" stroke-width="1" opacity="0.5"/>
  <path d="M652 418 A22 22 0 0 1 684 418" fill="none" stroke="#7233B8" stroke-width="1" opacity="0.3"/>
  <text x="688" y="436" fill="#2D3250" font-size="12" font-weight="600">EventSource</text>
  <text x="688" y="452" fill="#7B8099" font-size="10">Browser SSE client</text>
  <text x="656" y="472" fill="#7B8099" font-size="9">Real-time log streaming</text>

  <!-- Footer -->
  <text x="450" y="508" text-anchor="middle" fill="#656A80" font-size="10">Local-first · Zero external dependencies · Your data stays on your machine</text>
</svg>
